<svg width="1440" height="868" viewBox="0 0 1440 868" fill="none" xmlns="http://www.w3.org/2000/svg">
<g filter="url(#filter0_f_69_1855)">
<path fill-rule="evenodd" clip-rule="evenodd" d="M0 212.286L50 275C90.9 341.69 193.1 392.524 273.5 320C353.9 247.476 399.6 67.2385 480 12.8457C560.4 -41.5471 639.6 139.762 720 302.941C800.4 466.119 857.6 805 938 805C1018.4 805 1119.6 466.119 1200 375.465C1280.4 284.81 1359.6 248.548 1400.4 230.417L1440 212.286V865H1400.4C1359.6 865 1280.4 865 1200 865C1119.6 865 1040.4 865 960 865C879.6 865 800.4 865 720 865C639.6 865 560.4 865 480 865C399.6 865 320.4 865 240 865C159.6 865 80.4 865 39.6 865H0V212.286Z" fill="#8DADFF"/>
</g>
<defs>
<filter id="filter0_f_69_1855" x="-3" y="0" width="1446" height="868" filterUnits="userSpaceOnUse" color-interpolation-filters="sRGB">
<feFlood flood-opacity="0" result="BackgroundImageFix"/>
<feBlend mode="normal" in="SourceGraphic" in2="BackgroundImageFix" result="shape"/>
<feGaussianBlur stdDeviation="1.5" result="effect1_foregroundBlur_69_1855"/>
</filter>
</defs>
</svg>
